<svg enable-background="new 0 0 24 24" height="512" viewBox="0 0 24 24" width="512" xmlns="http://www.w3.org/2000/svg"><path d="m12 13.332c-6.168 0-10.82 2.132-10.82 4.959s4.652 4.959 10.82 4.959 10.82-2.132 10.82-4.959-4.652-4.959-10.82-4.959z" fill="#eceff1"/><path d="m12 19.643c-3.142 0-6.311-.767-6.311-2.48v-5.183c0-.373.303-.676.676-.676s.676.303.676.676c.114.305 1.764 1.127 4.959 1.127 3.172 0 4.821-.81 4.959-1.142.001-.029.004-.058.008-.086.039-.335.323-.586.67-.586.373 0 .674.314.674.688v5.184c0 1.712-3.169 2.478-6.311 2.478z" fill="#FF0000"/><path d="m12 13.875c-3.04 0-6.311-.684-6.311-2.188s3.271-2.187 6.311-2.187 6.311.684 6.311 2.188-3.271 2.187-6.311 2.187z" fill="#C10000"/><path d="m12 24c-6.841 0-12-2.384-12-5.545 0-.868.4-2.152 2.31-3.342.352-.221.814-.111 1.033.24s.111.814-.24 1.033c-.732.456-1.603 1.184-1.603 2.069 0 1.913 4.312 4.045 10.5 4.045s10.5-2.132 10.5-4.045c0-.885-.871-1.613-1.603-2.068-.352-.219-.459-.682-.24-1.033s.682-.461 1.033-.24c1.91 1.189 2.31 2.473 2.31 3.341 0 3.161-5.159 5.545-12 5.545z"/><path d="m12 14.25c-3.484 0-7-.851-7-2.75 0-1.093 1.202-1.921 3.477-2.395.409-.083.803.177.888.581.084.406-.176.803-.581.888-1.723.358-2.243.849-2.288.96.112.312 1.91 1.216 5.504 1.216s5.392-.904 5.502-1.265c-.042-.062-.562-.553-2.285-.911-.405-.085-.665-.481-.581-.888.085-.405.479-.668.888-.581 2.274.474 3.476 1.302 3.476 2.395 0 1.899-3.516 2.75-7 2.75z"/><path d="m18.25 18c-.414 0-.75-.336-.75-.75v-5.75c0-.414.336-.75.75-.75s.75.336.75.75v5.75c0 .414-.336.75-.75.75z"/><path d="m5.75 18c-.414 0-.75-.336-.75-.75v-5.75c0-.414.336-.75.75-.75s.75.336.75.75v5.75c0 .414-.336.75-.75.75z"/><path d="m12 20c-3.484 0-7-.851-7-2.75 0-.414.336-.75.75-.75s.75.336.75.75c.105.347 1.897 1.25 5.5 1.25s5.395-.903 5.501-1.263c0-.414.336-.744.75-.744s.749.343.749.757c0 1.899-3.516 2.75-7 2.75z"/><path d="m12 10.25c-.414 0-.75-.336-.75-.75v-7.75c0-.414.336-.75.75-.75s.75.336.75.75v7.75c0 .414-.336.75-.75.75z"/><path d="m12 10.25c-.21 0-.411-.088-.553-.243l-2.75-3c-.28-.306-.26-.78.046-1.06.305-.279.78-.26 1.06.046l2.197 2.397 2.197-2.396c.279-.306.757-.325 1.06-.046.306.279.326.754.046 1.06l-2.75 3c-.142.154-.343.242-.553.242z"/></svg>